<svg width="149" height="88" viewBox="0 0 149 88" fill="none" xmlns="http://www.w3.org/2000/svg">
<path d="M105.677 32.6352C93.0752 41.9785 92.6982 37.3732 95.3884 33.0449C96.1426 31.833 99.0017 27.522 101.624 23.3611C104.247 19.2059 113.483 6.70585 102.75 16.7186C97.1894 21.9068 78.4814 39.2892 78.4814 39.2892L86.5916 26.4948C86.5916 26.4948 100.938 5.51124 85.3422 14.7218C69.7465 23.9324 52.4005 43 52.4005 43C52.4005 43 64.3041 28.001 67.9962 22.784C70.844 18.7616 86.586 -5.93275 67.9962 2.89119C49.4064 11.7151 36.9456 35.2726 41.9209 29.9055C47.2937 24.1055 55.5263 13.2969 59.518 1.40406" stroke="white" stroke-width="2" stroke-miterlimit="10" stroke-linecap="round" stroke-linejoin="round"/>
<path d="M0.285 66H3.21L4.155 59.49H4.185L6.78 66H7.95L10.665 59.49H10.695L11.52 66H14.46L12.75 54.69H9.825L7.395 60.735L5.1 54.69H2.205L0.285 66ZM22.641 64.035L23.376 66H26.511L22.251 54.69H19.041L14.691 66H17.811L18.591 64.035H22.641ZM21.846 61.785H19.401L20.616 58.185H20.646L21.846 61.785ZM34.8097 55.32C33.8047 54.75 32.4097 54.39 31.2697 54.39C29.0047 54.39 27.3697 55.89 27.3697 58.185C27.3697 60.375 28.5847 60.855 30.4297 61.38C31.0597 61.56 32.2147 61.845 32.2147 62.67C32.2147 63.465 31.4797 63.81 30.7897 63.81C29.7847 63.81 28.9147 63.285 28.1797 62.64L26.9197 65.01C28.0747 65.82 29.4697 66.3 30.8947 66.3C32.0347 66.3 33.2197 65.985 34.1047 65.235C35.0047 64.47 35.2747 63.315 35.2747 62.19C35.2747 60.36 34.0597 59.565 32.4847 59.1L31.7347 58.875C31.2247 58.71 30.4297 58.455 30.4297 57.795C30.4297 57.165 31.1497 56.85 31.6897 56.85C32.4097 56.85 33.0997 57.15 33.6397 57.6L34.8097 55.32ZM41.1729 57.18H43.6029V54.69H35.8029V57.18H38.2329V66H41.1729V57.18ZM51.1059 57.18V54.69H44.6709V66H51.1059V63.51H47.6109V61.56H50.9259V59.07H47.6109V57.18H51.1059ZM58.768 61.365C60.373 61.08 61.243 59.73 61.243 58.17C61.243 55.755 59.548 54.69 57.313 54.69H52.918V66H55.858V61.65H55.888L58.663 66H62.323L58.768 61.365ZM55.858 56.94H56.143C57.103 56.94 58.183 57.12 58.183 58.35C58.183 59.58 57.103 59.76 56.143 59.76H55.858V56.94ZM65.4377 60.57V66H68.3777V60.57L72.5477 54.69H69.0227L66.9077 57.765L64.7927 54.69H61.2677L65.4377 60.57ZM85.7423 55.32C84.7373 54.75 83.3423 54.39 82.2023 54.39C79.9373 54.39 78.3023 55.89 78.3023 58.185C78.3023 60.375 79.5173 60.855 81.3623 61.38C81.9923 61.56 83.1473 61.845 83.1473 62.67C83.1473 63.465 82.4123 63.81 81.7223 63.81C80.7173 63.81 79.8473 63.285 79.1123 62.64L77.8523 65.01C79.0073 65.82 80.4023 66.3 81.8273 66.3C82.9673 66.3 84.1523 65.985 85.0373 65.235C85.9373 64.47 86.2073 63.315 86.2073 62.19C86.2073 60.36 84.9923 59.565 83.4173 59.1L82.6673 58.875C82.1573 58.71 81.3623 58.455 81.3623 57.795C81.3623 57.165 82.0823 56.85 82.6223 56.85C83.3423 56.85 84.0323 57.15 84.5723 57.6L85.7423 55.32ZM95.6905 54.96C94.8205 54.6 93.9505 54.39 93.0055 54.39C91.4155 54.39 89.8105 55.08 88.7005 56.22C87.6205 57.33 87.0355 58.815 87.0355 60.36C87.0355 62.04 87.6055 63.51 88.8505 64.635C90.0205 65.7 91.5205 66.3 93.0955 66.3C94.0105 66.3 94.7155 66.075 95.6905 65.775V62.25C95.0755 62.985 94.1155 63.45 93.1555 63.45C91.3255 63.45 90.0955 62.16 90.0955 60.375C90.0955 58.62 91.3105 57.24 93.1105 57.24C94.1155 57.24 95.0905 57.675 95.6905 58.485V54.96ZM100.448 59.055V54.69H97.5079V66H100.448V61.365H104.693V66H107.633V54.69H104.693V59.055H100.448ZM115.234 54.315C111.979 54.315 108.979 56.715 108.979 60.135C108.979 63.795 111.604 66.375 115.234 66.375C118.864 66.375 121.489 63.795 121.489 60.135C121.489 56.715 118.489 54.315 115.234 54.315ZM115.234 57.165C116.989 57.165 118.429 58.59 118.429 60.15C118.429 62.1 116.989 63.525 115.234 63.525C113.479 63.525 112.039 62.1 112.039 60.15C112.039 58.59 113.479 57.165 115.234 57.165ZM128.535 54.315C125.28 54.315 122.28 56.715 122.28 60.135C122.28 63.795 124.905 66.375 128.535 66.375C132.165 66.375 134.79 63.795 134.79 60.135C134.79 56.715 131.79 54.315 128.535 54.315ZM128.535 57.165C130.29 57.165 131.73 58.59 131.73 60.15C131.73 62.1 130.29 63.525 128.535 63.525C126.78 63.525 125.34 62.1 125.34 60.15C125.34 58.59 126.78 57.165 128.535 57.165ZM139.09 54.69H136.15V66H142.615V63.51H139.09V54.69Z" fill="white"/>
<path d="M73.0002 77.5542C73.0826 77.6367 73.1396 77.6938 73.1903 77.7445C73.0636 78.1188 72.7214 77.9412 72.43 78.03C72.411 78.5184 72.601 78.9625 72.7404 79.4256C73.0573 80.485 73.3551 81.5507 73.6719 82.6101C73.8303 83.1367 74.0204 83.6569 74.1852 84.1834C74.2485 84.3927 74.2929 84.6021 74.3689 84.8812C74.7554 83.8725 75.199 82.959 75.5538 82.0011C75.7439 81.4936 75.991 80.9925 76.2128 80.4913C76.5677 79.6793 76.9162 78.8673 77.2266 78.0427C77.3407 77.7382 77.5054 77.6557 77.7906 77.7001C78.0187 78.2012 78.3482 78.677 78.4496 79.2036C78.551 79.7364 78.8108 80.1995 78.9755 80.7007C79.1339 81.1891 79.3684 81.6713 79.5648 82.1597C79.8689 82.94 80.1858 83.7139 80.4962 84.4879C80.5279 84.564 80.5723 84.6274 80.6863 84.8304C81.4214 82.4833 82.2324 80.3137 82.9104 77.9983C82.6443 77.9983 82.4669 78.0236 82.3085 77.9919C82.1754 77.9602 82.055 77.8587 81.8649 77.7445C81.96 77.7128 82.055 77.6811 82.15 77.6493C82.1247 77.624 82.1057 77.5923 82.0803 77.5669C84.0827 77.5669 86.0786 77.5669 88.157 77.5669C88.0493 77.7445 87.9796 77.865 87.8972 77.9983C87.7134 77.9983 87.536 77.9983 87.3776 77.9983C87.0101 79.2226 87.2255 80.4469 87.1558 81.6522C87.3079 81.7728 87.3332 81.6078 87.3966 81.5634C87.479 81.5063 87.5424 81.4175 87.6184 81.3477C88.4738 80.5421 89.3166 79.7237 90.191 78.9435C90.4951 78.6707 90.907 78.5121 91.0147 78.068C90.9133 77.9412 90.7993 77.8079 90.6979 77.6874C90.7613 77.6113 90.7929 77.5415 90.8183 77.5415C91.642 77.5352 92.4721 77.5352 93.2895 77.5352C93.3719 77.6176 93.4416 77.6874 93.5176 77.7635C93.3719 77.8397 93.2261 77.9856 93.0804 77.9919C92.4214 78.0046 91.9842 78.3789 91.547 78.8039C91.2428 79.1021 90.9007 79.3558 90.5712 79.6286C90.267 79.8887 89.9945 80.1805 89.6651 80.4152C89.1898 80.7578 88.8033 81.2272 88.3724 81.6522C88.4104 81.7347 88.4168 81.8362 88.4675 81.8616C88.9554 82.147 89.3102 82.5784 89.7157 82.9654C90.4761 83.6822 91.2302 84.4054 92.0095 85.1032C92.377 85.4267 92.8269 85.6615 93.1818 85.9977C93.5493 86.3402 94.0055 86.3846 94.4871 86.6003C94.5948 86.4227 94.7025 86.2514 94.8989 85.9152C94.8989 83.5236 94.8989 80.8846 94.8989 78.2203C94.8356 78.1695 94.7595 78.0997 94.6328 77.9919C94.4681 77.9919 94.24 77.9919 94.0435 77.9919C93.9612 77.9094 93.9041 77.8523 93.8471 77.7953C93.8598 77.7635 93.8661 77.7128 93.8915 77.6937C93.9675 77.6367 94.0499 77.5415 94.1322 77.5415C96.0332 77.5352 97.9404 77.5352 99.9237 77.5352C99.6133 78.049 99.7336 78.5311 99.6956 79.0259C99.6006 79.1021 99.4865 79.1909 99.2964 79.3431C99.2584 79.0894 99.2394 78.9244 99.2014 78.6707C99.1127 78.6009 98.9543 78.4804 98.7388 78.3218C98.0101 78.3218 97.1864 78.3218 96.3246 78.3218C96.3246 79.3939 96.3246 80.466 96.3246 81.5571C97.2054 81.5571 98.0735 81.5571 98.9859 81.5571C99.138 81.481 99.3154 81.3795 99.5119 81.278C99.6513 81.9314 99.4865 82.5277 99.3218 83.124C99.2647 83.124 99.2141 83.124 99.1887 83.124C99.0493 82.8575 98.9162 82.5974 98.7895 82.3627C97.9278 82.3627 97.1357 82.3627 96.312 82.3627C96.312 83.4792 96.312 84.5894 96.312 85.6742C96.369 85.7883 96.4197 85.8962 96.4957 86.0548C96.6541 86.1055 96.8569 86.2134 97.066 86.2197C97.7123 86.2451 98.3586 86.2261 99.005 86.2261C99.2394 86.0548 99.4802 85.8772 99.702 85.7186C99.6766 85.3887 99.759 85.1793 100.12 85.1222C100.272 85.7439 99.9871 86.2705 99.8287 86.8351C97.3828 86.8351 94.9623 86.8351 92.5101 86.8351C92.1173 86.5686 91.623 86.41 91.2111 86.0992C91.0337 85.966 90.8563 85.8264 90.6979 85.6742C89.5257 84.5767 88.3597 83.4729 87.1368 82.3183C87.1368 83.3206 87.1305 84.2722 87.1432 85.2174C87.1432 85.4014 87.2572 85.5853 87.2826 85.7757C87.3079 85.9533 87.2889 86.1372 87.2889 86.3085C87.6057 86.5559 87.9796 86.5559 88.3597 86.5369C88.3597 86.6574 88.3597 86.7272 88.3597 86.8224C87.2445 86.8224 86.142 86.8224 85.0141 86.8224C85.0014 86.7843 84.9761 86.7145 84.9317 86.5877C85.1472 86.5623 85.3309 86.5432 85.5274 86.5179C85.5907 86.4544 85.6668 86.3783 85.7048 86.3402C86.047 83.9296 85.8379 81.538 85.8949 79.1528C85.9076 78.7468 85.7745 78.3852 85.5654 78.0236C85.1282 78.0236 84.691 78.0236 84.2537 78.0236C83.8546 78.3218 83.6708 78.7595 83.4807 79.2289C82.9801 80.4977 82.5176 81.7791 82.055 83.0605C81.6748 84.1136 81.2439 85.1603 80.9271 86.2451C80.8574 86.4925 80.6927 86.7145 80.5533 86.981C80.4709 86.981 80.3442 86.981 80.1351 86.981C79.1212 84.7353 78.2785 82.3627 77.2773 79.9711C77.1886 80.1551 77.1189 80.2883 77.0556 80.4279C76.8655 80.8656 76.669 81.3033 76.498 81.7474C76.0291 82.9781 75.4144 84.1453 75.0026 85.395C74.8188 85.9596 74.4956 86.4798 74.2422 87C74.0964 87 73.9887 87 73.8176 87C73.7163 86.7907 73.5769 86.5623 73.4945 86.3149C73.1587 85.3126 72.8735 84.2976 72.506 83.3079C72.1448 82.3437 71.8787 81.3477 71.4985 80.3898C71.3148 79.9267 71.131 79.4446 71.0359 78.9562C70.9536 78.5502 70.7571 78.2774 70.4783 78.0046C70.2819 78.0046 70.0791 78.0046 69.8384 78.0046C69.7623 77.8841 69.6736 77.7508 69.5532 77.5542C70.7698 77.5542 71.8724 77.5542 73.0002 77.5542Z" fill="white"/>
<path d="M50.9165 76.5582C50.644 76.4314 50.4983 76.3299 50.3399 76.2982C50.1751 76.2601 49.9914 76.2918 49.8076 76.2918C49.8076 76.1649 49.8076 76.0952 49.8076 76C51.0242 76 52.2345 76 53.4637 76C53.4764 76.0381 53.5018 76.1078 53.5271 76.184C53.2166 76.3172 52.9125 76.4504 52.6463 76.5582C52.3105 77.8777 52.4626 79.1528 52.4182 80.4469C54.6487 80.4469 56.8537 80.4469 59.0968 80.4469C59.0271 79.1655 59.2426 77.8904 58.8941 76.6344C58.5836 76.2982 58.1717 76.2537 57.7282 76.2918C57.7091 76.1903 57.6965 76.1205 57.6838 76.0127C58.9764 76.0127 60.2564 76.0127 61.549 76.0127C61.5554 76.0825 61.5617 76.1523 61.5744 76.2157C61.2829 76.2918 61.0041 76.3616 60.7253 76.4377C60.5162 76.7422 60.4845 77.0721 60.4845 77.4273C60.4972 79.6794 60.4782 81.925 60.4972 84.1771C60.5035 84.8305 60.3514 85.4966 60.6366 86.1373C60.7696 86.2578 60.9027 86.3783 61.0611 86.5242C61.3336 86.5242 61.6377 86.5242 61.9482 86.5242C62.4425 86.5242 62.7783 86.3022 62.9811 85.8391C63.2155 85.2936 63.5513 84.7797 63.7351 84.2151C63.8998 83.7076 64.204 83.2699 64.337 82.7561C64.5018 82.128 64.844 81.5698 65.0657 80.9608C65.2875 80.3581 65.5727 79.7809 65.7818 79.1655C65.9845 78.5565 66.3267 77.9983 66.6182 77.3829C66.7069 77.3829 66.8273 77.3829 66.954 77.3829C67.2835 78.0998 67.6447 78.8039 67.9298 79.5335C68.329 80.5611 68.8042 81.5508 69.2224 82.5657C69.6343 83.5554 70.0715 84.545 70.5784 85.4965C71.0347 86.353 71.4529 86.5813 72.2322 86.5369C72.2512 86.6004 72.2703 86.6701 72.3083 86.8034C71.2628 86.8731 70.2489 86.8097 69.2161 86.8414C69.1971 86.7463 69.1781 86.6765 69.1654 86.6004C69.2795 86.5433 69.3872 86.4989 69.5012 86.4418C69.0767 85.4902 68.6585 84.5513 68.2403 83.5998C67.1694 83.5998 66.1176 83.5998 64.977 83.5998C64.7046 84.2532 64.4068 84.9573 64.0836 85.7376C64.0836 85.9279 64.0836 86.207 64.0836 86.5052C64.2737 86.5179 64.4448 86.5242 64.6412 86.5369C64.6602 86.6004 64.6792 86.6701 64.6919 86.7336C64.5968 86.8604 60.5605 86.9049 58.0513 86.816C58.0386 86.7526 58.0196 86.6828 57.9943 86.5496C58.1844 86.5369 58.3555 86.5242 58.5836 86.5115C58.6596 86.41 58.7673 86.2705 58.8751 86.1309C58.8877 86.1436 58.9004 86.1563 58.9131 86.169C58.9257 86.15 58.9447 86.1246 58.9384 86.1055C58.8877 85.6488 59.0651 85.2111 59.0778 84.7734C59.1222 83.5617 59.0905 82.3501 59.0905 81.1194C56.8664 81.1194 54.6803 81.1194 52.4246 81.1194C52.4246 81.9504 52.3992 82.7941 52.4309 83.6378C52.4626 84.4689 52.545 85.2999 52.6083 86.188C52.7477 86.2768 52.9315 86.3974 53.1596 86.5496C53.3877 86.5496 53.6665 86.5496 53.958 86.5496C53.9643 86.6448 53.9643 86.7145 53.9707 86.816C52.6273 86.816 51.303 86.816 49.9597 86.816C49.9597 86.7209 49.9597 86.6511 49.9597 86.5559C50.2005 86.5559 50.4223 86.5559 50.587 86.5559C50.8848 86.391 50.8278 86.1436 50.8911 85.9279C50.9482 85.7186 51.0369 85.5219 51.0305 85.2872C51.0242 83.9423 51.0242 82.5975 51.0242 81.2526C51.0242 79.9585 51.0306 78.6644 51.0179 77.3702C51.0242 77.0848 50.9545 76.793 50.9165 76.5582ZM66.5992 79.5335C66.2063 80.0092 66.1556 80.6119 65.9212 81.1384C65.6867 81.6713 65.4333 82.2042 65.2939 82.8068C65.8008 82.8068 66.238 82.8132 66.6752 82.8068C67.0934 82.8005 67.5116 82.8385 67.8981 82.7878C67.4546 81.684 67.0427 80.6436 66.5992 79.5335Z" fill="white"/>
<path d="M103.566 86.5627C103.756 86.5627 103.978 86.5627 104.2 86.5627C104.212 86.6388 104.219 86.6896 104.219 86.7403C104.187 86.772 104.155 86.8418 104.124 86.8418C103.091 86.8482 102.058 86.8482 101.013 86.8482C100.994 86.772 100.975 86.7023 100.937 86.5754C101.203 86.5564 101.443 86.5373 101.684 86.5183C101.988 86.2455 102.058 85.903 102.058 85.5033C102.045 83.1244 102.052 80.7455 102.052 78.3666C102.052 78.1129 102.052 77.8528 102.052 77.6117C102.121 77.5419 102.178 77.4848 102.242 77.4214C102.267 77.4277 102.312 77.4214 102.343 77.4404C102.508 77.5483 102.685 77.6371 102.825 77.7703C104.269 79.1532 105.714 80.5425 107.146 81.9381C107.926 82.693 108.68 83.4796 109.453 84.2409C109.674 84.4629 109.934 84.6469 110.226 84.8309C110.029 84.2092 110.131 83.5875 110.118 82.9658C110.105 82.2934 110.118 81.6209 110.118 80.9485C110.118 80.3014 110.118 79.6544 110.118 79.0073C110.118 78.5506 110.118 78.5506 109.769 78.024C109.516 78.024 109.237 78.024 108.977 78.024C108.889 77.9225 108.819 77.8464 108.737 77.7576C108.794 77.6942 108.857 77.6244 108.914 77.5673C109.941 77.5673 110.961 77.5673 112 77.5673C111.943 77.8718 111.803 77.9923 111.531 77.9987C111.373 78.005 111.214 78.0811 111.043 78.1319C111.043 79.6417 111.043 81.0881 111.043 82.5281C111.043 83.9491 111.043 85.3637 111.043 86.7593C110.961 86.8418 110.91 86.8926 110.847 86.956C110.815 86.9433 110.777 86.9433 110.745 86.9243C110.403 86.6896 110.036 86.4802 109.725 86.2074C108.838 85.4018 107.97 84.5708 107.102 83.7461C105.695 82.4076 104.295 81.0563 102.806 79.6354C102.907 80.1555 102.666 80.5996 102.971 81.031C103.047 81.1325 102.983 81.3355 102.983 81.4877C102.983 82.7565 102.977 84.0252 102.983 85.2876C102.983 85.7761 103.116 86.2201 103.566 86.5627Z" fill="white"/>
<path d="M38.276 79.152C37.7 79.152 37.184 79.44 36.788 79.788C35.78 80.664 35.276 82.176 35.276 82.908C35.276 83.724 35.864 84.192 36.32 84.192C36.704 84.192 37.016 84.084 37.316 83.94C38.312 83.436 39.404 82.092 39.404 80.496C39.404 79.92 39.008 79.152 38.276 79.152ZM38.18 79.464C38.504 79.464 38.624 79.704 38.624 80.04C38.624 81.12 37.88 82.692 37.364 83.316C37.028 83.736 36.764 83.856 36.572 83.856C36.26 83.856 36.116 83.604 36.116 83.328C36.116 82.128 36.752 80.652 37.316 80.004C37.628 79.632 37.904 79.464 38.18 79.464ZM42.4204 79.272C42.4084 79.272 42.3604 79.2 42.3724 79.152C42.6004 78.372 42.9724 77.328 43.2844 76.764C43.7524 75.936 44.0644 75.744 44.4244 75.744C44.7484 75.744 44.9404 76.152 44.9284 76.596C44.9284 76.668 44.9164 76.788 44.9164 76.848C44.9164 76.932 44.9524 76.968 45.0124 76.968C45.2044 76.968 45.5884 76.668 45.6004 76.152C45.6124 75.78 45.3244 75.396 44.7124 75.396C44.3884 75.396 44.0164 75.504 43.5364 75.84C42.6244 76.452 41.9284 78.06 41.5324 79.212C41.5204 79.236 41.4844 79.296 41.4484 79.296C41.2804 79.296 40.8724 79.308 40.6564 79.308C40.5604 79.308 40.4284 79.452 40.4284 79.596C40.4284 79.644 40.4644 79.716 40.5484 79.716L41.2804 79.692C41.3524 79.692 41.3644 79.764 41.3524 79.788C40.8604 81.396 40.2124 83.772 39.8284 85.2C39.4684 86.592 39.0844 86.784 38.7604 86.784C38.4724 86.784 38.2084 86.616 37.9804 86.316C37.9324 86.256 37.8364 86.22 37.7884 86.232C37.6204 86.232 37.2724 86.628 37.2724 86.784C37.2604 87.072 37.5604 87.324 38.1124 87.324C38.3404 87.324 39.0124 87.108 39.4564 86.796C39.7684 86.556 40.2964 86.28 40.6444 85.116C41.0284 83.736 41.7844 81 42.1684 79.788C42.1924 79.728 42.2284 79.692 42.2644 79.692C42.6124 79.692 43.0564 79.656 43.3204 79.656C43.4764 79.656 43.6084 79.464 43.6084 79.392C43.6084 79.356 43.5724 79.236 43.5124 79.236L42.4204 79.272Z" fill="white"/>
</svg>
