<svg width="20" height="20" viewBox="0 0 20 20" fill="none" xmlns="http://www.w3.org/2000/svg">
<path fill-rule="evenodd" clip-rule="evenodd" d="M19.3167 5.59172L17.5666 4.84172L18.4833 2.84172L16.35 3.55005C15.6705 2.91666 14.7789 2.56 13.85 2.55005C11.7808 2.55463 10.1046 4.23088 10.1 6.30005V7.13338C7.14998 7.74172 4.57498 6.13338 2.18332 3.38338C1.76665 5.6056 2.18332 7.27227 3.43332 8.38338L0.69165 7.96672C0.910254 9.78836 2.40178 11.1921 4.23332 11.3L1.94165 12.1334C2.77498 13.8 4.29165 14.0584 6.31665 14.2167C4.6615 15.3456 2.69463 15.9284 0.69165 15.8834C11.325 20.6084 17.5666 13.6667 17.5666 7.55005V6.85838L19.3167 5.59172Z" stroke="white" stroke-linecap="round" stroke-linejoin="round"/>
<path fill-rule="evenodd" clip-rule="evenodd" d="M19.3167 5.59172L17.5666 4.84172L18.4833 2.84172L16.35 3.55005C15.6705 2.91666 14.7789 2.56 13.85 2.55005C11.7808 2.55463 10.1046 4.23088 10.1 6.30005V7.13338C7.14998 7.74172 4.57498 6.13338 2.18332 3.38338C1.76665 5.6056 2.18332 7.27227 3.43332 8.38338L0.69165 7.96672C0.910254 9.78836 2.40178 11.1921 4.23332 11.3L1.94165 12.1334C2.77498 13.8 4.29165 14.0584 6.31665 14.2167C4.6615 15.3456 2.69463 15.9284 0.69165 15.8834C11.325 20.6084 17.5666 13.6667 17.5666 7.55005V6.85838L19.3167 5.59172Z" stroke="url(#paint0_linear)" stroke-linecap="round" stroke-linejoin="round"/>
<defs>
<linearGradient id="paint0_linear" x1="10.0042" y1="2.55005" x2="10.0042" y2="17.4441" gradientUnits="userSpaceOnUse">
<stop stop-color="white"/>
<stop offset="1" stop-color="white" stop-opacity="0"/>
</linearGradient>
</defs>
</svg>
